<?xml version="1.0" encoding="UTF-8"?> <!-- Generator: Adobe Illustrator 22.0.0, SVG Export Plug-In . SVG Version: 6.00 Build 0) --> <svg xmlns="http://www.w3.org/2000/svg" xmlns:xlink="http://www.w3.org/1999/xlink" id="Capa_1" x="0px" y="0px" width="89.5px" height="89.5px" viewBox="0 0 89.5 89.5" style="enable-background:new 0 0 89.5 89.5;" xml:space="preserve"> <style type="text/css"> .st0{fill:#404FA1;} .st1{display:none;} .st2{display:inline;fill:#FFFFFF;} .st3{display:inline;fill:#F77F0F;} .st4{display:none;fill:#F77F0F;} .st5{display:inline;} .st6{fill:#FFFFFF;} </style> <circle class="st0" cx="44.8" cy="44.5" r="44.5"></circle> <g class="st1"> <path class="st2" d="M53,18.6H24.4v53h41.5V31.5L53,18.6z M53.6,21.6l9.3,9.3h-9.3V21.6z M26.2,69.8V20.4h25.6v12.4h12.4v37.1H26.2 z"></path> <path class="st2" d="M33.3,33.6h7.9c0.5,0,0.9-0.4,0.9-0.9c0-0.5-0.4-0.9-0.9-0.9h-7.9c-0.5,0-0.9,0.4-0.9,0.9 C32.4,33.2,32.8,33.6,33.3,33.6z"></path> <path class="st2" d="M48.3,51.3h-15c-0.5,0-0.9,0.4-0.9,0.9s0.4,0.9,0.9,0.9h15c0.5,0,0.9-0.4,0.9-0.9S48.8,51.3,48.3,51.3z"></path> <path class="st2" d="M57.1,45.1h-6.2c-0.5,0-0.9,0.4-0.9,0.9s0.4,0.9,0.9,0.9h6.2c0.5,0,0.9-0.4,0.9-0.9S57.6,45.1,57.1,45.1z"></path> <path class="st2" d="M33.3,40.7h4.4c0.5,0,0.9-0.4,0.9-0.9s-0.4-0.9-0.9-0.9h-4.4c-0.5,0-0.9,0.4-0.9,0.9S32.8,40.7,33.3,40.7z"></path> <path class="st2" d="M46.5,40.7h6.2c0.5,0,0.9-0.4,0.9-0.9s-0.4-0.9-0.9-0.9h-6.2c-0.5,0-0.9,0.4-0.9,0.9S46,40.7,46.5,40.7z"></path> <path class="st2" d="M41.2,39.8c0,0.2,0.1,0.5,0.3,0.6c0.2,0.2,0.4,0.3,0.6,0.3c0.2,0,0.5-0.1,0.6-0.3c0.2-0.2,0.3-0.4,0.3-0.6 c0-0.2-0.1-0.5-0.3-0.6c-0.3-0.3-0.9-0.3-1.3,0C41.3,39.3,41.2,39.6,41.2,39.8z"></path> <path class="st2" d="M37.7,45.1c-0.5,0-0.9,0.4-0.9,0.9s0.4,0.9,0.9,0.9h8.8c0.5,0,0.9-0.4,0.9-0.9s-0.4-0.9-0.9-0.9H37.7z"></path> <path class="st2" d="M33.3,46.9c0.2,0,0.5-0.1,0.6-0.3c0.2-0.2,0.3-0.4,0.3-0.6c0-0.2-0.1-0.5-0.3-0.6c-0.3-0.3-0.9-0.3-1.3,0 c-0.2,0.2-0.3,0.4-0.3,0.6c0,0.2,0.1,0.5,0.3,0.6C32.8,46.8,33,46.9,33.3,46.9z"></path> <path class="st2" d="M57.1,57.5h-6.2c-0.5,0-0.9,0.4-0.9,0.9s0.4,0.9,0.9,0.9h6.2c0.5,0,0.9-0.4,0.9-0.9S57.6,57.5,57.1,57.5z"></path> <path class="st2" d="M46.5,57.5h-8.8c-0.5,0-0.9,0.4-0.9,0.9s0.4,0.9,0.9,0.9h8.8c0.5,0,0.9-0.4,0.9-0.9S47,57.5,46.5,57.5z"></path> <path class="st2" d="M32.6,57.7c-0.2,0.2-0.3,0.4-0.3,0.6c0,0.2,0.1,0.5,0.3,0.6c0.2,0.2,0.4,0.3,0.6,0.3c0.2,0,0.5-0.1,0.6-0.3 c0.2-0.2,0.3-0.4,0.3-0.6c0-0.2-0.1-0.5-0.3-0.6C33.6,57.4,33,57.4,32.6,57.7z"></path> <path class="st2" d="M56.5,39.2c-0.2,0.2-0.3,0.4-0.3,0.6c0,0.2,0.1,0.5,0.3,0.6c0.2,0.2,0.4,0.3,0.6,0.3c0.2,0,0.5-0.1,0.6-0.3 c0.2-0.2,0.3-0.4,0.3-0.6c0-0.2-0.1-0.5-0.3-0.6C57.4,38.9,56.8,38.9,56.5,39.2z"></path> <path class="st2" d="M53.3,52.8c0.2-0.2,0.3-0.4,0.3-0.6c0-0.2-0.1-0.5-0.3-0.6c-0.3-0.3-0.9-0.3-1.3,0c-0.2,0.2-0.3,0.4-0.3,0.6 c0,0.2,0.1,0.5,0.3,0.6c0.2,0.2,0.4,0.3,0.6,0.3C52.9,53.1,53.1,53,53.3,52.8z"></path> <path class="st2" d="M56.5,51.5c-0.2,0.2-0.3,0.4-0.3,0.6c0,0.2,0.1,0.5,0.3,0.6c0.2,0.2,0.4,0.3,0.6,0.3c0.2,0,0.5-0.1,0.6-0.3 c0.2-0.2,0.3-0.4,0.3-0.6c0-0.2-0.1-0.5-0.3-0.6C57.4,51.2,56.8,51.2,56.5,51.5z"></path> </g> <g class="st1"> <path class="st3" d="M70.7,41c0.5,0,0.8-0.4,0.8-0.8s-0.4-0.8-0.8-0.8c-10.8,0-19.7-8.8-19.7-19.7c0-0.5-0.4-0.8-0.8-0.8 c-0.5,0-0.8,0.4-0.8,0.8C49.4,31.4,58.9,41,70.7,41z"></path> <path class="st3" d="M19.6,49.4c-0.5,0-0.8,0.4-0.8,0.8s0.4,0.8,0.8,0.8c10.8,0,19.7,8.8,19.7,19.7c0,0.5,0.4,0.8,0.8,0.8 c0.5,0,0.8-0.4,0.8-0.8C40.9,59,31.4,49.4,19.6,49.4z"></path> <path class="st3" d="M46.8,54.6c0.5,0,0.8-0.4,0.8-0.8c0-0.5-0.4-0.8-0.8-0.8H46V37.5h0.8c0.5,0,0.8-0.4,0.8-0.8s-0.4-0.8-0.8-0.8 H46V29h0.8c0.5,0,0.8-0.4,0.8-0.8c0-0.5-0.4-0.8-0.8-0.8H46v-6.8h0.8c0.5,0,0.8-0.4,0.8-0.8s-0.4-0.8-0.8-0.8h-3.4 c-0.5,0-0.8,0.4-0.8,0.8s0.4,0.8,0.8,0.8h0.8v6.8h-0.8c-0.5,0-0.8,0.4-0.8,0.8c0,0.5,0.4,0.8,0.8,0.8h0.8v6.8h-0.8 c-0.5,0-0.8,0.4-0.8,0.8s0.4,0.8,0.8,0.8h0.8v6.8h-6.8v-0.8c0-0.5-0.4-0.8-0.8-0.8c-0.5,0-0.8,0.4-0.8,0.8v0.8H29v-0.8 c0-0.5-0.4-0.8-0.8-0.8c-0.5,0-0.8,0.4-0.8,0.8v0.8h-6.8v-0.8c0-0.5-0.4-0.8-0.8-0.8c-0.5,0-0.8,0.4-0.8,0.8v3.4 c0,0.5,0.4,0.8,0.8,0.8c0.5,0,0.8-0.4,0.8-0.8V46h6.8v0.8c0,0.5,0.4,0.8,0.8,0.8c0.5,0,0.8-0.4,0.8-0.8V46h6.8v0.8 c0,0.5,0.4,0.8,0.8,0.8c0.5,0,0.8-0.4,0.8-0.8V46h6.8v6.8h-0.8c-0.5,0-0.8,0.4-0.8,0.8c0,0.5,0.4,0.8,0.8,0.8h0.8v6.8h-0.8 c-0.5,0-0.8,0.4-0.8,0.8s0.4,0.8,0.8,0.8h0.8v6.8h-0.8c-0.5,0-0.8,0.4-0.8,0.8s0.4,0.8,0.8,0.8h3.4c0.5,0,0.8-0.4,0.8-0.8 s-0.4-0.8-0.8-0.8H46v-6.8h0.8c0.5,0,0.8-0.4,0.8-0.8s-0.4-0.8-0.8-0.8H46v-6.8L46.8,54.6L46.8,54.6z"></path> <path class="st3" d="M70.7,42.7c-0.5,0-0.8,0.4-0.8,0.8v0.8H63v-0.8c0-0.5-0.4-0.8-0.8-0.8c-0.5,0-0.8,0.4-0.8,0.8v0.8h-6.8v-0.8 c0-0.5-0.4-0.8-0.8-0.8c-0.5,0-0.8,0.4-0.8,0.8v0.8h-4.3c-0.5,0-0.8,0.4-0.8,0.8s0.4,0.8,0.8,0.8h4.3v0.8c0,0.5,0.4,0.8,0.8,0.8 c0.5,0,0.8-0.4,0.8-0.8V46h6.8v0.8c0,0.5,0.4,0.8,0.8,0.8c0.5,0,0.8-0.4,0.8-0.8V46h6.8v0.8c0,0.5,0.4,0.8,0.8,0.8 c0.5,0,0.8-0.4,0.8-0.8v-3.4C71.6,43,71.2,42.7,70.7,42.7z"></path> </g> <path class="st4" d="M72.6,61.5l-5.9-2.6v-24c0-0.4-0.3-0.8-0.7-1l-19.7-8.5v-8c0-0.6-0.5-1.1-1.1-1.1c-0.6,0-1.1,0.5-1.1,1.1v8 l-19.7,8.5c-0.4,0.2-0.7,0.6-0.7,1v24l-5.9,2.6c-0.6,0.2-0.8,0.9-0.6,1.4c0.2,0.5,0.9,0.8,1.4,0.6l6.1-2.7l19.9,8.6 c0.3,0.1,0.6,0.1,0.9,0l19.9-8.6l6.1,2.7c0.6,0.2,1.2,0,1.4-0.6C73.4,62.4,73.1,61.7,72.6,61.5z M44.1,27.7v2.7 c0,0.6,0.5,1.1,1.1,1.1c0.6,0,1.1-0.5,1.1-1.1v-2.7l16.5,7.1l-17.6,7.6l-17.6-7.6L44.1,27.7z M31.7,56.5c-0.2-0.6-0.9-0.8-1.4-0.6 L26,57.9V36.5l18.2,7.8v22.3l-16.5-7.1l3.6-1.6C31.7,57.7,32,57.1,31.7,56.5z M46.3,66.6V44.3l18.2-7.8v21.4l-4.3-1.9 c-0.6-0.2-1.2,0-1.4,0.6c-0.2,0.6,0,1.2,0.6,1.4l3.6,1.6L46.3,66.6z"></path> <path class="st4" d="M70.3,18.3h-40c-2.8,0-5,2.2-5,5v8h-7c-2.8,0-5,2.2-5,5v20c0,2.8,2.2,5,5,5h5v9c0,0.6,0.4,1,1,1 c0.3,0,0.5-0.1,0.7-0.3l9.7-9.7h23.6c2.8,0,5-2.2,5-5v-8h7c2.8,0,5-2.2,5-5v-20C75.2,20.5,73,18.3,70.3,18.3z M61.3,56.3 c0,1.7-1.3,3-3,3h-24c-0.3,0-0.5,0.1-0.7,0.3l-8.3,8.3v-7.6c0-0.6-0.4-1-1-1h-6c-1.7,0-3-1.3-3-3v-20c0-1.7,1.3-3,3-3h40 c1.7,0,3,1.3,3,3V56.3z M73.3,43.3c0,1.7-1.3,3-3,3h-7v-10c0-2.8-2.2-5-5-5h-31v-8c0-1.7,1.3-3,3-3h40c1.7,0,3,1.3,3,3V43.3z"></path> <g class="st1"> <g class="st5"> <g> <path class="st6" d="M68.7,43.4c-0.6,0-1.2,0.2-1.7,0.4c-0.8-1-2-1.6-3.3-1.6c-0.7,0-1.3,0.2-1.9,0.5l-0.1,0l-1.7,1 c-0.8-0.9-1.9-1.5-3.2-1.5c-0.7,0-1.3,0.2-1.9,0.5l-0.1,0l-6.6,4c-1.5-0.4-3.1-0.9-4.7-1.4c-1.7-0.5-3.3-0.9-4.6-1.3 c-0.7-0.2-1.2-0.3-1.7-0.4c-0.2,0-0.4-0.1-0.6-0.1c-0.2,0-0.3,0-0.5,0c-0.1,0-0.3,0-0.4,0c-0.5,0.1-1.2,0.2-2,0.4 c-1.7,0.4-3.8,1-5,1.3v-2c0-1.4-1.1-2.5-2.5-2.5h-6.9c-1.4,0-2.5,1.1-2.5,2.5v19.5c0,1.4,1.1,2.5,2.5,2.5h6.9 c1.4,0,2.5-1.1,2.5-2.5v-1.5c1.5,0.3,4.8,1,8.3,1.8c2.4,0.5,4.8,1,6.8,1.3c1,0.2,1.9,0.3,2.6,0.4c0.7,0.1,1.3,0.2,1.7,0.2 c0.3,0,0.6-0.1,1-0.2c0.6-0.2,1.3-0.5,2.2-0.9c2.8-1.4,6.9-4,10.8-6.5c3.8-2.6,7.4-5.1,9.2-6.3c1.1-0.8,1.7-2,1.7-3.4 C72.9,45.3,71,43.4,68.7,43.4z M26.8,62.7c0,0.3-0.3,0.6-0.6,0.6h-6.9c-0.3,0-0.6-0.3-0.6-0.6V43.3c0-0.3,0.3-0.6,0.6-0.6h6.9 c0.3,0,0.6,0.3,0.6,0.6V62.7z M70.1,49.5c-2.2,1.5-7,4.9-11.7,8c-2.3,1.5-4.6,2.9-6.5,4c-0.9,0.5-1.8,0.9-2.5,1.2 c-0.3,0.1-0.6,0.2-0.9,0.3C48.4,63,48.2,63,48.1,63c-0.2,0-0.7-0.1-1.4-0.2c-2.5-0.4-7.1-1.3-11.1-2.1c-2-0.4-3.8-0.8-5.2-1.1 c-0.8-0.2-1.4-0.3-1.8-0.4V47.2c0.2-0.1,0.4-0.1,0.7-0.2c1-0.3,2.5-0.7,3.9-1c0.7-0.2,1.3-0.3,1.8-0.4c0.3-0.1,0.5-0.1,0.6-0.1 c0.2,0,0.3,0,0.3,0c0,0,0.1,0,0.2,0c0.5,0.1,1.6,0.3,2.9,0.7c3.9,1,10.1,2.9,12.6,3.6c0.9,0.3,1.6,0.7,2.2,1.1 c0.3,0.2,0.5,0.5,0.6,0.8c0.1,0.3,0.2,0.6,0.2,0.9c0,0.7-0.3,1.4-0.8,1.9c-0.5,0.5-1.1,0.8-1.9,0.8L49.6,55l-8.3-1.1 c-0.5-0.1-1,0.3-1.1,0.8c-0.1,0.5,0.3,1,0.8,1.1l8.3,1.1l2.6,0.3h0c2.5,0,4.5-2,4.5-4.5c0-0.6-0.1-1.2-0.4-1.7 c-0.4-0.8-1-1.4-1.7-1.9c-0.7-0.5-1.5-0.8-2.2-1c-0.4-0.1-1-0.3-1.6-0.5l5.1-3.1c0.3-0.2,0.7-0.3,1-0.3c0.6,0,1.2,0.2,1.6,0.6 l-2.5,1.5c-0.4,0.3-0.6,0.8-0.3,1.3c0.3,0.4,0.8,0.6,1.3,0.3l5.9-3.5c0.3-0.2,0.7-0.3,1-0.3c0.6,0,1.2,0.3,1.7,0.7l-6.8,4 c-0.4,0.3-0.6,0.8-0.3,1.3c0.3,0.4,0.8,0.6,1.3,0.3l7.4-4.4c0.1,0,0.1,0,0.2-0.1c0.2-0.1,0.3-0.2,0.4-0.3l0.2-0.1 c0.3-0.2,0.7-0.3,1-0.3c0.6,0,1.2,0.3,1.7,0.7c0.4,0.4,0.7,1,0.7,1.7C71,48.4,70.7,49.1,70.1,49.5z"></path> </g> </g> <g class="st5"> <g> <path class="st6" d="M50.8,29.8c-0.8-0.6-1.8-0.9-2.7-1.2c-0.1,0-0.3-0.1-0.4-0.1v-5.7c0.9,0.1,1.6,0.4,2,0.8 c0.3,0.2,0.5,0.5,0.7,0.8c0.1,0.3,0.2,0.7,0.2,1.1c0,0.5,0.4,0.9,0.9,0.9s0.9-0.4,0.9-0.9c0-0.7-0.1-1.3-0.4-1.9 c-0.4-0.9-1.2-1.6-2.1-2.1c-0.7-0.3-1.4-0.5-2.3-0.6V20c0-0.5-0.4-0.9-0.9-0.9c-0.5,0-0.9,0.4-0.9,0.9v0.8 c-0.7,0.1-1.3,0.2-1.8,0.4c-1.1,0.4-1.8,1.1-2.3,1.9c-0.5,0.8-0.7,1.6-0.7,2.4c0,0.8,0.2,1.5,0.6,2.1c0.3,0.5,0.7,0.9,1.2,1.2 c0.8,0.5,1.8,0.8,2.7,1.1c0.1,0,0.2,0.1,0.4,0.1v6.2c-0.9-0.1-1.6-0.4-2.1-0.8c-0.6-0.5-0.9-1.1-0.9-1.9c0-0.5-0.4-0.9-0.9-0.9 c-0.5,0-0.9,0.4-0.9,0.9c0,1.3,0.6,2.5,1.5,3.4c0.9,0.7,2,1.2,3.3,1.3v0.8c0,0.5,0.4,0.9,0.9,0.9c0.5,0,0.9-0.4,0.9-0.9V38 c1.1-0.1,2.1-0.4,2.9-0.9c0.6-0.4,1.1-0.9,1.4-1.5c0.3-0.6,0.5-1.4,0.5-2.2c0-0.9-0.2-1.6-0.5-2.3C51.7,30.6,51.2,30.2,50.8,29.8 z M45.8,28c-0.9-0.2-1.7-0.5-2.2-0.9c-0.3-0.2-0.4-0.4-0.6-0.7c-0.1-0.3-0.2-0.6-0.2-1c0-0.6,0.2-1.3,0.7-1.8 c0.3-0.3,0.6-0.5,1.1-0.7c0.3-0.1,0.7-0.2,1.2-0.3L45.8,28L45.8,28z M50.3,34.7c-0.1,0.2-0.3,0.4-0.5,0.6 c-0.3,0.3-0.8,0.5-1.4,0.6c-0.2,0.1-0.5,0.1-0.8,0.1v-5.7c0.6,0.2,1.1,0.3,1.5,0.6c0.5,0.3,0.8,0.5,1.1,0.9 c0.2,0.4,0.4,0.8,0.4,1.5C50.6,34,50.5,34.4,50.3,34.7z"></path> </g> </g> </g> <g> <g> <g> <path class="st6" d="M72.1,21.3c0-1-0.4-1.9-1.1-2.6c-0.7-0.7-1.6-1.1-2.6-1.1c-1,0-1.9,0.4-2.6,1.1c-0.3,0.3-0.8,0.9-1.1,1.3 c-0.3,0.4-0.3,0.9,0.1,1.2c0.4,0.3,0.9,0.3,1.2-0.1c0.5-0.6,0.8-1,1-1.2c0.4-0.4,0.9-0.6,1.4-0.6c0,0,0,0,0,0 c0.5,0,1,0.2,1.4,0.6c0.4,0.4,0.6,0.9,0.6,1.4c0,0.5-0.2,1-0.6,1.4c-0.3,0.3-1.5,1.2-3.1,2.4c-1-1.7-2.8-2.8-4.8-2.8H48.9 c-1.7,0-3.4,0.7-4.6,1.9L18.4,50.1c-0.5,0.5-0.8,1.2-0.8,2s0.3,1.4,0.8,2l17.3,17.3c0.5,0.5,1.2,0.8,2,0.8c0.7,0,1.4-0.3,2-0.8 l25.8-25.8c1.2-1.2,1.9-2.9,1.9-4.6V27.9c0-0.4,0-0.8-0.1-1.1c1.9-1.3,3.2-2.4,3.7-2.8C71.7,23.2,72.1,22.3,72.1,21.3z M65.6,40.8c0,1.3-0.5,2.5-1.4,3.4L38.4,70c-0.4,0.4-1,0.4-1.4,0L19.7,52.7c-0.2-0.2-0.3-0.4-0.3-0.7c0-0.3,0.1-0.5,0.3-0.7 l25.8-25.8c0.9-0.9,2.1-1.4,3.4-1.4h12.9c1.5,0,2.7,0.8,3.4,2c-1,0.7-2.2,1.4-3.4,2.1c0,0-0.1-0.1-0.1-0.1 c-1.4-1.4-3.8-1.4-5.2,0c-1.4,1.4-1.4,3.8,0,5.2c0.7,0.7,1.7,1.1,2.6,1.1c0.9,0,1.9-0.4,2.6-1.1c1-1,1.3-2.3,1-3.6 c1.1-0.6,2.1-1.3,3.1-1.9c0,0,0,0,0,0L65.6,40.8L65.6,40.8z M58.2,31.1c0.2,0.3,0.5,0.5,0.8,0.5c0.1,0,0.3,0,0.4-0.1 c0.5-0.3,1-0.5,1.5-0.8c0,0.5-0.2,1-0.6,1.4c-0.8,0.8-2,0.8-2.7,0c-0.8-0.8-0.8-2,0-2.7c0.4-0.4,0.9-0.6,1.4-0.6 c0.4,0,0.8,0.1,1.1,0.4c-0.5,0.3-1,0.5-1.5,0.8C58.1,30.2,57.9,30.7,58.2,31.1z"></path> </g> </g> <g> <g> <path class="st6" d="M43.9,35.6c-0.5,0-0.9,0.4-0.9,0.9v18.6c0,0.5,0.4,0.9,0.9,0.9c0.5,0,0.9-0.4,0.9-0.9V36.5 C44.8,36,44.4,35.6,43.9,35.6z"></path> </g> </g> <g> <g> <path class="st6" d="M39.9,43.2c-1.4-1.4-3.8-1.4-5.2,0c-1.4,1.4-1.4,3.8,0,5.2c0.7,0.7,1.7,1.1,2.6,1.1c0.9,0,1.9-0.4,2.6-1.1 c0.7-0.7,1.1-1.6,1.1-2.6S40.6,43.9,39.9,43.2z M38.6,47.2c-0.8,0.8-2,0.8-2.7,0c-0.8-0.8-0.8-2,0-2.7c0.4-0.4,0.9-0.6,1.4-0.6 c0.5,0,1,0.2,1.4,0.6c0.4,0.4,0.6,0.9,0.6,1.4C39.2,46.3,39,46.8,38.6,47.2z"></path> </g> </g> <g> <g> <path class="st6" d="M53.2,43.2c-1.4-1.4-3.8-1.4-5.2,0c-1.4,1.4-1.4,3.8,0,5.2c0.7,0.7,1.7,1.1,2.6,1.1c0.9,0,1.9-0.4,2.6-1.1 C54.6,47,54.6,44.6,53.2,43.2z M51.9,47.2c-0.8,0.8-2,0.8-2.7,0c-0.8-0.8-0.8-2,0-2.7c0.4-0.4,0.9-0.6,1.4-0.6s1,0.2,1.4,0.6 C52.7,45.2,52.7,46.4,51.9,47.2z"></path> </g> </g> </g> <g class="st1"> <path class="st2" d="M19.4,57.6c0.5,0,0.8-0.4,0.8-0.8V32.7h48.9v9.1c0,0.5,0.4,0.8,0.8,0.8c0.5,0,0.8-0.4,0.8-0.8V25.5 c0-2.8-2.3-5-5-5h-2.2v-1c0-1.1-0.9-2-2-2H60c-1.1,0-2,0.9-2,2v1h-5.5v-1c0-1.1-0.9-2-2-2H49c-1.1,0-2,0.9-2,2v1h-5.5v-1 c0-1.1-0.9-2-2-2H38c-1.1,0-2,0.9-2,2v1h-5.5v-1c0-1.1-0.9-2-2-2h-1.5c-1.1,0-2,0.9-2,2v1h-1.3c-2.8,0-5,2.3-5,5v31.3 C18.6,57.3,19,57.6,19.4,57.6z M59.7,19.4c0-0.2,0.2-0.4,0.4-0.4h1.5c0.2,0,0.4,0.2,0.4,0.4v4c0,0.2-0.2,0.4-0.4,0.4H60 c-0.2,0-0.4-0.2-0.4-0.4V19.4z M48.6,19.4c0-0.2,0.2-0.4,0.4-0.4h1.5c0.2,0,0.4,0.2,0.4,0.4v4c0,0.2-0.2,0.4-0.4,0.4H49 c-0.2,0-0.4-0.2-0.4-0.4V19.4z M37.6,19.4c0-0.2,0.2-0.4,0.4-0.4h1.5c0.2,0,0.4,0.2,0.4,0.4v4c0,0.2-0.2,0.4-0.4,0.4H38 c-0.2,0-0.4-0.2-0.4-0.4V19.4z M26.6,19.4c0-0.2,0.2-0.4,0.4-0.4h1.5c0.2,0,0.4,0.2,0.4,0.4v4c0,0.2-0.2,0.4-0.4,0.4h-1.5 c-0.2,0-0.4-0.2-0.4-0.4V19.4z M23.6,22.1h1.3v1.3c0,1.1,0.9,2,2,2h1.5c1.1,0,2-0.9,2-2v-1.3h5.5v1.3c0,1.1,0.9,2,2,2h1.5 c1.1,0,2-0.9,2-2v-1.3H47v1.3c0,1.1,0.9,2,2,2h1.5c1.1,0,2-0.9,2-2v-1.3H58v1.3c0,1.1,0.9,2,2,2h1.5c1.1,0,2-0.9,2-2v-1.3h2.2 c1.9,0,3.4,1.5,3.4,3.4v5.6H20.3v-5.6C20.3,23.6,21.8,22.1,23.6,22.1z"></path> <path class="st2" d="M28,65.3h-7.2c-0.3,0-0.5-0.2-0.5-0.5v-4.3c0-0.5-0.4-0.8-0.8-0.8c-0.5,0-0.8,0.4-0.8,0.8v4.3 c0,1.2,1,2.2,2.2,2.2H28c0.5,0,0.8-0.4,0.8-0.8C28.8,65.7,28.4,65.3,28,65.3z"></path> <path class="st2" d="M27.9,35.1h-2.9c-0.5,0-0.8,0.4-0.8,0.8c0,0.5,0.4,0.8,0.8,0.8h2.9c0.5,0,0.8-0.4,0.8-0.8 C28.8,35.5,28.4,35.1,27.9,35.1z"></path> <path class="st2" d="M33.9,36.8h2.9c0.5,0,0.8-0.4,0.8-0.8c0-0.5-0.4-0.8-0.8-0.8h-2.9c-0.5,0-0.8,0.4-0.8,0.8 C33.1,36.4,33.4,36.8,33.9,36.8z"></path> <path class="st2" d="M42.7,36.8h2.9c0.5,0,0.8-0.4,0.8-0.8c0-0.5-0.4-0.8-0.8-0.8h-2.9c-0.5,0-0.8,0.4-0.8,0.8 C41.9,36.4,42.3,36.8,42.7,36.8z"></path> <path class="st2" d="M51.6,36.8h2.9c0.5,0,0.8-0.4,0.8-0.8c0-0.5-0.4-0.8-0.8-0.8h-2.9c-0.5,0-0.8,0.4-0.8,0.8 C50.7,36.4,51.1,36.8,51.6,36.8z"></path> <path class="st2" d="M63.3,35.1h-2.9c-0.5,0-0.8,0.4-0.8,0.8c0,0.5,0.4,0.8,0.8,0.8h2.9c0.5,0,0.8-0.4,0.8-0.8 C64.1,35.5,63.7,35.1,63.3,35.1z"></path> <path class="st2" d="M27.9,39.3h-2.9c-0.5,0-0.8,0.4-0.8,0.8c0,0.5,0.4,0.8,0.8,0.8h2.9c0.5,0,0.8-0.4,0.8-0.8 C28.8,39.7,28.4,39.3,27.9,39.3z"></path> <path class="st2" d="M33.9,41h2.9c0.5,0,0.8-0.4,0.8-0.8c0-0.5-0.4-0.8-0.8-0.8h-2.9c-0.5,0-0.8,0.4-0.8,0.8 C33.1,40.6,33.4,41,33.9,41z"></path> <path class="st2" d="M42.7,41h2.9c0.5,0,0.8-0.4,0.8-0.8c0-0.5-0.4-0.8-0.8-0.8h-2.9c-0.5,0-0.8,0.4-0.8,0.8 C41.9,40.6,42.3,41,42.7,41z"></path> <path class="st2" d="M51.6,41h2.9c0.5,0,0.8-0.4,0.8-0.8c0-0.5-0.4-0.8-0.8-0.8h-2.9c-0.5,0-0.8,0.4-0.8,0.8 C50.7,40.6,51.1,41,51.6,41z"></path> <path class="st2" d="M63.3,39.3h-2.9c-0.5,0-0.8,0.4-0.8,0.8c0,0.5,0.4,0.8,0.8,0.8h2.9c0.5,0,0.8-0.4,0.8-0.8 C64.1,39.7,63.7,39.3,63.3,39.3z"></path> <path class="st2" d="M33.9,57.2l4.3,4.3c0.6,0.6,1.4,1,2.3,1c0.9,0,1.7-0.3,2.3-1l11.6-11.6c1.3-1.3,1.3-3.3,0-4.6 c-1.3-1.3-3.3-1.3-4.6,0l-9.3,9.3l-1.9-1.9c-1.3-1.3-3.3-1.3-4.6,0C32.6,53.9,32.6,55.9,33.9,57.2z M35.1,53.8 c0.3-0.3,0.7-0.5,1.1-0.5c0.4,0,0.8,0.2,1.1,0.5l2.5,2.5c0.3,0.3,0.8,0.3,1.2,0l9.9-9.9c0.6-0.6,1.6-0.6,2.3,0 c0.6,0.6,0.6,1.6,0,2.3L41.6,60.3c-0.3,0.3-0.7,0.5-1.1,0.5c-0.4,0-0.8-0.2-1.1-0.5L35.1,56C34.5,55.4,34.5,54.4,35.1,53.8z"></path> <path class="st2" d="M70.8,52.2v-6.6c0-0.5-0.4-0.8-0.8-0.8c-0.5,0-0.8,0.4-0.8,0.8v5.5c-1.5-0.8-3.2-1.2-5-1.2 c-6.1,0-11,4.9-11,11c0,1.6,0.3,3.1,0.9,4.5H31.7c-0.5,0-0.8,0.4-0.8,0.8c0,0.5,0.4,0.8,0.8,0.8H55c2,2.9,5.3,4.9,9.1,4.9 c6.1,0,11-4.9,11-11C75.1,57.3,73.4,54.2,70.8,52.2z M64.1,70.2c-5.1,0-9.3-4.2-9.3-9.3s4.2-9.3,9.3-9.3s9.3,4.2,9.3,9.3 S69.2,70.2,64.1,70.2z"></path> <path class="st2" d="M64.1,52.8c-4.5,0-8.1,3.6-8.1,8.1c0,4.5,3.6,8.1,8.1,8.1c4.5,0,8.1-3.6,8.1-8.1 C72.2,56.4,68.6,52.8,64.1,52.8z M64.8,67.3c0.1-0.1,0.1-0.2,0.1-0.4v-1c0-0.5-0.4-0.8-0.8-0.8c-0.5,0-0.8,0.4-0.8,0.8v1 c0,0.1,0,0.3,0.1,0.4c-3-0.3-5.3-2.7-5.7-5.7c0.1,0.1,0.2,0.1,0.4,0.1h1c0.5,0,0.8-0.4,0.8-0.8c0-0.5-0.4-0.8-0.8-0.8h-1 c-0.1,0-0.3,0-0.4,0.1c0.3-3,2.7-5.3,5.7-5.7c-0.1,0.1-0.1,0.2-0.1,0.4v1c0,0.5,0.4,0.8,0.8,0.8c0.5,0,0.8-0.4,0.8-0.8v-1 c0-0.1,0-0.3-0.1-0.4c3,0.3,5.3,2.7,5.7,5.7c-0.1-0.1-0.2-0.1-0.4-0.1h-1c-0.5,0-0.8,0.4-0.8,0.8c0,0.5,0.4,0.8,0.8,0.8h1 c0.1,0,0.3,0,0.4-0.1C70.2,64.6,67.8,67,64.8,67.3z"></path> <path class="st2" d="M65.9,60.1h-1v-0.8c0-0.5-0.4-0.8-0.8-0.8c-0.5,0-0.8,0.4-0.8,0.8v1.7c0,0.5,0.4,0.8,0.8,0.8h1.8 c0.5,0,0.8-0.4,0.8-0.8C66.7,60.4,66.4,60.1,65.9,60.1z"></path> </g> </svg> 